<svg id="Capa_1" data-name="Capa 1" xmlns="http://www.w3.org/2000/svg" viewBox="0 0 128 400"><defs><style>.cls-1{fill:#b2becd;}</style></defs><title>hamburguesa</title><path class="cls-1" d="M259.24,50a64,64,0,1,0,64,64A64,64,0,0,0,259.24,50Zm-.5,94.5a30,30,0,1,1,30-30A30,30,0,0,1,258.74,144.48Z" transform="translate(-195.24 -49.98)"/><path class="cls-1" d="M259.24,186a64,64,0,1,0,64,64A64,64,0,0,0,259.24,186Zm0,94a30,30,0,1,1,30-30A30,30,0,0,1,259.24,280Z" transform="translate(-195.24 -49.98)"/><path class="cls-1" d="M259.24,322a64,64,0,1,0,64,64A64,64,0,0,0,259.24,322Zm0,94a30,30,0,1,1,30-30A30,30,0,0,1,259.24,416Z" transform="translate(-195.24 -49.98)"/></svg>