<?xml version="1.0" encoding="utf-8"?>
<!-- Generator: Adobe Illustrator 23.0.5, SVG Export Plug-In . SVG Version: 6.00 Build 0)  -->
<svg version="1.1" id="Capa_1" xmlns="http://www.w3.org/2000/svg" xmlns:xlink="http://www.w3.org/1999/xlink" x="0px" y="0px"
	 viewBox="0 0 500 500" style="enable-background:new 0 0 500 500;" xml:space="preserve">
<style type="text/css">
	.st0{fill:#652C89;}
	.st1{fill:#EC0B8E;}
	.st2{fill:none;}
	.st3{stroke:#FFFFFF;stroke-width:3;stroke-miterlimit:10;}
</style>
<g>
	<g>
		<polyline class="st0" points="250.43,455.02 418.8,367.24 449.94,121.99 249.45,55.02 		"/>
		<polyline class="st1" points="249.45,55.02 49.94,121.99 79.14,367.24 250.43,455.02 		"/>
	</g>
	<g>
		<rect x="135.44" y="96.26" class="st2" width="230.5" height="301.76"/>
		<path class="st3" d="M313.44,380.26l-34.4-59.6c-14-22.8-22.8-37.6-31.2-53.2h-0.8c-7.6,15.6-15.2,30-29.2,53.6l-32.4,59.2h-40
			l82.4-136.4l-79.2-133.2h40.4l35.6,63.2c10,17.6,17.6,31.2,24.8,45.6h1.2c7.6-16,14.4-28.4,24.4-45.6l36.8-63.2h40l-82,131.2
			l84,138.4H313.44z"/>
	</g>
</g>
<g>
</g>
<g>
</g>
<g>
</g>
<g>
</g>
<g>
</g>
<g>
</g>
<g>
</g>
<g>
</g>
<g>
</g>
<g>
</g>
<g>
</g>
<g>
</g>
<g>
</g>
<g>
</g>
<g>
</g>
</svg>
