<svg id="Capa_1" data-name="Capa 1" xmlns="http://www.w3.org/2000/svg" viewBox="0 0 400 400"><defs><style>.cls-1{fill:#b2becd;}</style></defs><title>sol</title><path class="cls-1" d="M464.07,223.44l-92.39-32.86a5.79,5.79,0,0,1-3.29-8l42.09-88.56a5.8,5.8,0,0,0-7.72-7.73l-88.56,42.1a5.81,5.81,0,0,1-8-3.29L273.39,32.76a5.8,5.8,0,0,0-10.93,0l-32.85,92.39a5.8,5.8,0,0,1-8,3.29l-88.57-42.1a5.8,5.8,0,0,0-7.72,7.73l42.1,88.56a5.8,5.8,0,0,1-3.3,8L71.78,223.44a5.79,5.79,0,0,0,0,10.92l92.39,32.86a5.8,5.8,0,0,1,3.3,7.95l-42.1,88.56a5.8,5.8,0,0,0,7.72,7.73l88.57-42.1a5.8,5.8,0,0,1,8,3.3l32.85,92.39a5.8,5.8,0,0,0,10.93,0l32.85-92.39a5.81,5.81,0,0,1,8-3.3l88.56,42.1a5.8,5.8,0,0,0,7.72-7.73l-42.09-88.56a5.79,5.79,0,0,1,3.29-7.95l92.39-32.86A5.79,5.79,0,0,0,464.07,223.44ZM268.19,324.13a95,95,0,1,1,95-95A95,95,0,0,1,268.19,324.13Z" transform="translate(-67.93 -28.9)"/><circle class="cls-1" cx="200" cy="200" r="79.97"/></svg>