<svg id="Capa_1" data-name="Capa 1" xmlns="http://www.w3.org/2000/svg" viewBox="0 0 410.01 410.01"><defs><style>.cls-1,.cls-2{fill:none;stroke:#b2becd;stroke-miterlimit:10;}.cls-1{stroke-width:10.01px;}.cls-2{stroke-width:9.88px;}</style></defs><title>maletin</title><path class="cls-1" d="M49.57,126.55l8.5,170.26a5.14,5.14,0,0,0,5.13,4.87h0a5.13,5.13,0,0,1,5.13,5.12V444.55a5.13,5.13,0,0,0,5.13,5.13H423.72a5.14,5.14,0,0,0,5.14-5.13V306.8a5.12,5.12,0,0,1,5.13-5.12H434a5.13,5.13,0,0,0,5.12-4.82l10.39-170.25a5.12,5.12,0,0,0-5.12-5.43H54.7A5.12,5.12,0,0,0,49.57,126.55Z" transform="translate(-44.56 -44.67)"/><path class="cls-1" d="M339.73,121.18V64.68a15,15,0,0,0-15-15H174.48a15,15,0,0,0-15,15v56.5" transform="translate(-44.56 -44.67)"/><path class="cls-1" d="M179.49,121.18V84.68a15,15,0,0,1,15-15H304.67a15,15,0,0,1,15,15v36.5" transform="translate(-44.56 -44.67)"/><line class="cls-1" x1="185.28" y1="285.19" x2="15.26" y2="255"/><path class="cls-1" d="M230.92,332" transform="translate(-44.56 -44.67)"/><path class="cls-1" d="M254,332" transform="translate(-44.56 -44.67)"/><line class="cls-2" x1="391.54" y1="255" x2="214.36" y2="284.33"/><rect class="cls-1" x="181.02" y="247.5" width="36.01" height="80" rx="2.34"/></svg>