<svg id="Capa_1" data-name="Capa 1" xmlns="http://www.w3.org/2000/svg" viewBox="0 0 340.33 399.94"><defs><style>.cls-1,.cls-2,.cls-3,.cls-4{fill:none;}.cls-1,.cls-2,.cls-3{stroke:#b2becd;stroke-width:10px;}.cls-1,.cls-2{stroke-miterlimit:10;}.cls-2,.cls-3{stroke-linecap:round;}.cls-3{stroke-linejoin:round;}</style></defs><title>perfil</title><path class="cls-1" d="M321.51,115.6c-72.77-59.37-142.69,0-142.69,0v38.67s69.92-59.38,142.69,0Z" transform="translate(-79.4 -49.7)"/><line class="cls-2" x1="126.89" y1="114.77" x2="151.86" y2="114.77"/><line class="cls-3" x1="190.03" y1="114.77" x2="211.44" y2="114.77"/><path class="cls-2" d="M229.48,221.39s22.12,23.58,38.53,0" transform="translate(-79.4 -49.7)"/><line class="cls-1" x1="270.68" y1="61.77" x2="270.68" y2="122.72"/><ellipse class="cls-1" cx="270.68" cy="130.22" rx="10.74" ry="10.32"/><path class="cls-1" d="M351.05,172.42" transform="translate(-79.4 -49.7)"/><path class="cls-4" d="M274.07,215.3" transform="translate(-79.4 -49.7)"/><path class="cls-1" d="M350,112.2c.56-.32.56-.83,0-1.15L251.18,54.94a2.31,2.31,0,0,0-2,0l-98.83,56.11a.61.61,0,0,0,0,1.15l28.49,16.17V166.1s10.71,96.76,71.35,96.76,71.34-96.76,71.34-96.76V128.37Z" transform="translate(-79.4 -49.7)"/><polyline class="cls-2" points="284.51 330.15 284.51 330.15 284.51 394.31"/><polyline class="cls-2" points="55.82 330.15 55.82 330.15 55.82 394.31"/><path class="cls-1" d="M313.09,296l100.82,18.9a1,1,0,0,1,.82,1V443.65a1,1,0,0,1-1,1H85.4a1,1,0,0,1-1-1V315.89a1,1,0,0,1,.83-1l98.27-17.25" transform="translate(-79.4 -49.7)"/><polygon class="cls-1" points="168.9 294.05 195.89 344.5 222.89 394.94 168.9 394.94 114.9 394.94 141.9 344.5 168.9 294.05"/><path class="cls-1" d="M209.7,275.41,182.09,297l34.27,58.63a1.28,1.28,0,0,0,1.88.36l27.6-21.56-34.26-58.64A1.28,1.28,0,0,0,209.7,275.41Z" transform="translate(-79.4 -49.7)"/><path class="cls-1" d="M289.59,275.88l26.9,22-36.35,57.95a1.28,1.28,0,0,1-1.9.29l-26.81-22.68,36.28-57.24A1.26,1.26,0,0,1,289.59,275.88Z" transform="translate(-79.4 -49.7)"/></svg>