<svg id="Capa_1" data-name="Capa 1" xmlns="http://www.w3.org/2000/svg" viewBox="0 0 225.22 224.12"><defs><style>.cls-1{fill:#0dc143;stroke:#fff;stroke-width:20px;}.cls-1,.cls-2{stroke-miterlimit:10;}.cls-2{fill:none;stroke:#000;stroke-width:1.01px;}.cls-3{fill:#fff;}</style></defs><title>whasapt</title><path class="cls-1" d="M352.18,247.61a100,100,0,0,1-151.81,85.55l-48.69,13.95L166,298.38a100,100,0,1,1,186.17-50.77Z" transform="translate(-136.95 -137.61)"/><path class="cls-2" d="M251.93,247.61" transform="translate(-136.95 -137.61)"/><path class="cls-3" d="M306.93,281a22.08,22.08,0,0,1-17.2,21.53c-1.47.08-3,.11-4.45.11-1.9,0-3.78-.06-5.66-.18a88.34,88.34,0,0,1-82.51-82.51c-.12-1.88-.18-3.76-.18-5.66,0-1.49,0-3,.11-4.45a22.08,22.08,0,0,1,21.53-17.2,23.18,23.18,0,0,1,2.78.18,21.62,21.62,0,0,1,4.36,1l8.4,36.59c-.25.26-.5.5-.77.75h0l-11.61,5.41h0a1.56,1.56,0,0,1-.36.05l0,.11a67.35,67.35,0,0,0,41.44,41.44l.11,0a1.56,1.56,0,0,1,.05-.36h0l5.41-11.61h0c.25-.27.49-.52.75-.77l36.59,8.4a21.78,21.78,0,0,1,1,4.36A23.18,23.18,0,0,1,306.93,281Z" transform="translate(-136.95 -137.61)"/></svg>